<svg width="38" height="38" viewBox="0 0 38 38" fill="none" xmlns="http://www.w3.org/2000/svg">
<path d="M20.5833 30.0833C20.5833 29.545 20.6467 29.0225 20.7258 28.5H6.33332V12.6667L19 20.5833L31.6667 12.6667V20.7258C32.8067 20.9158 33.8675 21.3117 34.8333 21.8658V9.5C34.8333 7.75833 33.4083 6.33333 31.6667 6.33333H6.33332C4.59166 6.33333 3.16666 7.75833 3.16666 9.5V28.5C3.16666 30.2417 4.59166 31.6667 6.33332 31.6667H20.7258C20.6467 31.1442 20.5833 30.6217 20.5833 30.0833ZM31.6667 9.5L19 17.4167L6.33332 9.5H31.6667ZM28.1042 35.0867L23.75 30.3367L25.5867 28.5L28.1042 31.0175L33.7883 25.3333L35.625 27.5658L28.1042 35.0867Z" fill="#21A500"/>
</svg>
