<svg width="64" height="72" viewBox="0 0 64 72" fill="none" xmlns="http://www.w3.org/2000/svg">
<g id="mdi:email-check-outline">
<path id="Vector" d="M34.6667 56.4516C34.6667 55.4556 34.7733 54.4889 34.9067 53.5222H10.6667V24.2283L32 38.8752L53.3333 24.2283V39.1389C55.2533 39.4904 57.04 40.2227 58.6667 41.248V18.3695C58.6667 15.1471 56.2667 12.5107 53.3333 12.5107H10.6667C7.73334 12.5107 5.33334 15.1471 5.33334 18.3695V53.5222C5.33334 56.7445 7.73334 59.381 10.6667 59.381H34.9067C34.7733 58.4143 34.6667 57.4476 34.6667 56.4516ZM53.3333 18.3695L32 33.0164L10.6667 18.3695H53.3333ZM47.3333 65.7085L40 56.9203L43.0933 53.5222L47.3333 58.1799L56.9067 47.6634L60 51.7938L47.3333 65.7085Z" fill="white"/>
</g>
</svg>
